<svg version="1.1" id="Layer_1" xmlns="http://www.w3.org/2000/svg" xmlns:xlink="http://www.w3.org/1999/xlink" x="0px" y="0px"
	 width="100%" viewBox="0 0 1024 1024" enable-background="new 0 0 1024 1024" xml:space="preserve">
<path fill="#7D5CD1" opacity="1.000000" stroke="none" 
	d="
M455.231659,771.990784 
	C449.731323,770.666199 444.585144,769.618774 439.635895,767.977417 
	C426.990662,763.783936 414.373169,759.489868 401.864655,754.908203 
	C395.075439,752.421448 388.387939,749.554138 381.912506,746.338928 
	C373.523621,742.173645 365.097778,737.951294 357.218872,732.921631 
	C345.550690,725.473083 333.926056,717.828857 323.082306,709.256653 
	C314.337921,702.343811 306.652802,694.058594 298.727417,686.152039 
	C291.944366,679.385071 284.974670,672.700012 279.023224,665.232910 
	C272.443542,656.977600 266.568481,648.094849 261.037079,639.085876 
	C253.444260,626.719421 246.234482,614.100891 239.333389,601.334778 
	C236.592361,596.264221 234.631958,590.628784 233.251236,585.020386 
	C232.450302,581.767029 230.973450,581.089905 228.266479,580.994812 
	C219.331924,580.681091 210.355148,580.769592 201.476151,579.884827 
	C191.249298,578.865723 181.039413,577.333435 170.950790,575.364807 
	C160.459442,573.317444 149.947342,571.038574 139.763535,567.843506 
	C128.532654,564.319885 117.455330,560.303040 107.570984,553.359192 
	C102.365791,549.702515 95.792633,548.061768 90.142937,544.954712 
	C78.219612,538.397522 68.967857,529.586487 65.804688,515.532837 
	C63.150635,503.741241 67.237183,493.944550 74.372055,485.289398 
	C83.860909,473.778687 97.003922,468.010040 110.695641,462.768066 
	C125.282768,457.183289 140.475113,454.713531 155.631577,452.235992 
	C168.091156,450.199310 180.849228,449.965576 193.481415,449.018188 
	C199.407242,448.573761 205.344788,448.200134 211.283539,448.046997 
	C214.641678,447.960419 214.691528,445.743958 215.009064,443.412750 
	C216.325027,433.751953 216.782822,423.861603 219.225037,414.490601 
	C224.134766,395.651398 229.319168,376.790833 238.015503,359.231232 
	C243.957611,347.232971 249.978912,335.224274 256.851471,323.751343 
	C262.918396,313.623352 270.339844,304.315948 276.936798,294.494141 
	C287.763702,278.374603 302.352753,265.698486 316.310394,252.645523 
	C327.538727,242.144958 340.341980,233.147934 353.210236,224.638855 
	C363.410583,217.893906 374.513489,212.335297 385.684082,207.286301 
	C396.965057,202.187454 408.744934,198.141174 420.455078,194.060959 
	C428.334045,191.315674 436.362885,188.782013 444.520569,187.109116 
	C455.238129,184.911270 466.256897,184.158875 476.948914,181.865524 
	C491.111694,178.827728 505.376373,178.954422 519.672852,179.049576 
	C526.442383,179.094635 533.243652,179.344482 539.967529,180.078918 
	C549.494934,181.119614 559.042786,182.295898 568.435974,184.152237 
	C577.808105,186.004425 587.200195,188.183121 596.222290,191.273209 
	C608.249023,195.392380 619.977539,200.407944 631.734192,205.279541 
	C638.137024,207.932678 644.498596,210.779877 650.582275,214.085297 
	C658.807556,218.554321 666.896790,223.316483 674.768799,228.381256 
	C682.659912,233.458328 690.328003,238.906143 697.864990,244.499771 
	C701.692139,247.340103 705.130920,250.741547 708.543823,254.094452 
	C716.746826,262.153320 725.365173,269.875031 732.829346,278.578796 
	C742.460815,289.809784 751.830200,301.399200 760.023499,313.693268 
	C768.708069,326.724304 776.867859,340.306305 783.427612,354.493469 
	C789.552612,367.740540 793.160034,382.139282 798.094849,395.952759 
	C802.372192,407.925934 805.349915,420.114410 806.093018,432.859009 
	C806.298279,436.379211 808.538269,438.879974 812.451233,438.974609 
	C816.448914,439.071289 820.457153,438.850281 824.449280,439.026947 
	C837.986572,439.626160 851.575806,439.788757 865.034729,441.183838 
	C875.836060,442.303467 886.412109,445.506012 897.205750,446.813080 
	C910.226013,448.389862 922.109314,452.938171 933.330261,459.198669 
	C945.174500,465.806793 955.419922,474.218018 958.197205,488.630768 
	C960.584534,501.019653 958.020935,511.846191 949.236572,521.522583 
	C936.859497,535.156494 920.910400,541.191956 903.665222,545.002563 
	C893.351257,547.281677 883.069519,549.775330 872.669922,551.575195 
	C865.082825,552.888306 857.341187,553.446472 849.642761,553.944824 
	C839.530640,554.599182 829.395996,554.954895 819.265564,555.256042 
	C814.551025,555.396240 809.789368,555.422119 805.112244,554.915833 
	C800.873169,554.456970 799.187073,556.675415 798.007324,560.035400 
	C793.984497,571.492371 790.496460,583.176086 785.776245,594.338501 
	C780.860352,605.963745 774.915466,617.169556 769.090637,628.387512 
	C766.539917,633.299866 763.345520,637.911316 760.134155,642.440125 
	C754.134949,650.900818 748.511414,659.737549 741.641663,667.446472 
	C730.565674,679.875488 719.455994,692.522278 706.795410,703.225769 
	C692.454529,715.349731 676.919373,726.298828 660.899841,736.121948 
	C648.759521,743.566284 634.922119,748.194397 622.070740,754.543091 
	C611.576172,759.727539 600.695190,763.538330 589.304932,766.047058 
	C583.479980,767.330078 577.711182,768.908630 571.846802,769.962891 
	C563.317261,771.496399 554.620728,772.215820 546.181641,774.111389 
	C531.877563,777.324280 517.422668,777.043701 502.961304,776.947083 
	C495.692108,776.898560 488.388702,776.643921 481.169281,775.855347 
	C472.632751,774.922913 464.170135,773.313477 455.231659,771.990784 
M734.074402,354.250092 
	C732.091675,350.389496 730.379150,346.357025 728.059753,342.710571 
	C724.954224,337.828308 721.435608,333.202911 717.991394,328.543365 
	C712.983887,321.769012 708.276245,314.717010 702.720520,308.418610 
	C696.405945,301.259766 689.611816,294.445068 682.453430,288.129944 
	C674.137634,280.793701 665.638428,273.498657 656.413330,267.405182 
	C646.538635,260.882629 635.738708,255.756821 625.319519,250.063583 
	C610.401855,241.912231 594.236206,236.968765 578.103088,232.018372 
	C571.881836,230.109406 565.475952,228.592346 559.044678,227.622971 
	C546.969666,225.802917 534.841980,223.588776 522.686584,223.233261 
	C507.454987,222.787796 492.097107,221.761597 476.968445,225.849991 
	C468.489349,228.141403 459.522919,228.582230 450.965088,230.642090 
	C441.133087,233.008621 431.432922,236.010529 421.826630,239.192688 
	C416.509277,240.954132 411.454163,243.549255 406.365234,245.947647 
	C400.209717,248.848755 394.038605,251.746521 388.065002,254.996353 
	C380.482574,259.121399 372.859039,263.249512 365.688202,268.028839 
	C359.340912,272.259308 353.457642,277.227264 347.609558,282.154480 
	C340.928894,287.783142 333.911957,293.188843 328.125519,299.660889 
	C319.683563,309.103180 310.593903,318.047333 304.495728,329.522247 
	C300.436188,337.161163 294.162170,343.626587 290.133148,351.277557 
	C284.053467,362.822815 278.462341,374.712158 273.793915,386.888611 
	C269.409302,398.324768 266.183014,410.241364 263.034637,422.102509 
	C260.900818,430.141571 259.782898,438.450256 258.240417,446.483307 
	C265.293640,447.010529 271.867889,447.797546 278.455658,447.934723 
	C293.603943,448.250275 308.208282,451.762390 322.844543,455.076996 
	C342.651367,459.562531 360.600677,467.451630 374.043518,483.508179 
	C385.683533,497.411346 389.071991,512.584595 382.085388,529.760254 
	C376.333923,543.899475 364.505249,551.642883 352.179443,558.913757 
	C346.528809,562.247009 340.808685,565.487549 334.957245,568.448425 
	C328.912903,571.506897 322.919006,575.476013 316.457153,576.708069 
	C306.810425,578.547363 296.767517,578.267883 286.905212,579.043213 
	C283.991364,579.272278 281.118195,580.019043 278.012329,580.566284 
	C321.267639,674.657898 396.080017,723.546631 496.142517,732.336914 
	C560.758667,738.013245 619.974060,717.124573 671.265564,677.549744 
	C713.155151,645.229126 739.881348,601.702087 755.560913,550.855591 
	C750.556580,550.165405 745.487366,549.803711 740.577454,548.720032 
	C729.836243,546.349243 719.106934,543.864014 708.499451,540.962585 
	C694.275513,537.072083 680.027710,533.328308 667.318787,525.177490 
	C657.474548,518.863892 648.122375,504.831451 651.784058,491.528503 
	C653.911072,483.801056 657.034668,476.672852 662.011536,470.931854 
	C666.785461,465.424927 673.271179,461.312775 679.318604,457.031067 
	C683.209839,454.275940 687.432861,451.528290 691.927734,450.195709 
	C698.551514,448.231964 705.558899,447.578278 712.386230,446.279449 
	C717.772705,445.254700 723.089355,443.716736 728.515991,443.079834 
	C739.908386,441.742767 751.352783,440.848724 763.670227,439.688538 
	C761.580688,430.580353 759.568787,421.874878 757.593079,413.161255 
	C756.946472,410.309875 756.732788,407.312958 755.737061,404.596710 
	C752.307861,395.242035 748.859802,385.880035 744.956177,376.717957 
	C741.797302,369.303558 737.971680,362.173218 734.074402,354.250092 
z"/>
<path fill="#7D5CD1" opacity="1.000000" stroke="none" 
	d="
M517.765991,502.994080 
	C530.017578,499.565643 541.802612,496.035187 553.655090,492.748230 
	C565.304260,489.517639 575.635803,498.610260 574.061951,510.635406 
	C573.444336,515.354858 573.214172,520.327332 571.455444,524.632263 
	C570.007141,528.177307 567.052979,531.577087 563.912720,533.874756 
	C553.625793,541.401794 541.487244,544.499146 529.207031,546.977783 
	C516.171509,549.608826 503.344086,549.102234 490.464447,545.366577 
	C482.079651,542.934631 473.368713,541.554443 464.744873,540.038940 
	C455.568329,538.426331 446.067688,528.464722 444.048309,517.830688 
	C442.589661,510.149475 448.071899,498.639954 456.302765,495.596497 
	C463.051147,493.101166 470.354370,492.410492 477.565887,496.714966 
	C482.248474,499.509949 488.030853,501.054199 493.504578,501.790710 
	C501.358002,502.847443 509.379303,502.656830 517.765991,502.994080 
z"/>
<path fill="#7D5CD1" opacity="1.000000" stroke="none" 
	d="
M420.730713,374.781189 
	C416.437256,377.030701 412.426239,379.046356 408.393951,381.018555 
	C402.222290,384.037201 396.064178,387.085785 389.848297,390.011108 
	C383.086273,393.193512 375.658020,393.532196 368.919098,391.518188 
	C365.090363,390.373932 361.499054,386.030487 359.310059,382.253174 
	C352.629333,370.725098 356.017151,360.461151 364.668335,352.915680 
	C366.092560,351.673462 367.890656,350.821259 369.597595,349.948547 
	C377.593872,345.860352 385.474335,341.503815 393.668549,337.854767 
	C404.771027,332.910553 417.500946,333.824585 425.398712,342.601013 
	C431.644440,349.541626 432.471466,369.124878 420.730713,374.781189 
z"/>
<path fill="#7D5CD1" opacity="1.000000" stroke="none" 
	d="
M573.000610,330.166626 
	C575.703247,330.120392 578.405823,330.074097 581.575806,330.442322 
	C583.613892,332.179352 585.756409,333.201263 586.641113,334.884338 
	C588.759216,338.913666 590.652283,336.828430 592.752869,335.166779 
	C592.966187,335.032776 593.196777,334.988098 593.848877,335.407166 
	C596.801880,338.469910 598.128113,343.365204 603.539978,340.914978 
	C603.757263,340.816620 604.200378,341.034790 604.451904,341.221649 
	C608.031189,343.880676 611.348755,347.017670 615.230591,349.109680 
	C619.390869,351.351807 621.232483,358.204163 627.833252,355.686157 
	C632.618408,363.720947 628.560364,369.840515 623.632080,375.924316 
	C618.644104,382.081879 612.312927,383.614471 604.884155,382.062195 
	C604.562683,381.995026 604.212280,381.967133 603.890137,382.016632 
	C590.706970,384.042572 579.896301,377.261780 568.780151,372.161804 
	C559.091187,367.716553 552.405701,357.061523 556.055481,345.513580 
	C556.380371,344.485657 557.216675,343.619324 558.304810,342.229614 
	C562.716492,339.226929 566.728088,336.795288 570.507324,334.044556 
	C571.665649,333.201447 572.187378,331.483795 573.000610,330.166626 
z"/>
<path fill="#7D5CD1" opacity="1.000000" stroke="none" 
	d="
M590.932251,413.000000 
	C603.796265,412.528534 609.678162,420.323669 611.708313,429.439850 
	C613.961609,439.558014 609.719971,449.084198 598.859375,454.234344 
	C588.263855,459.258850 571.880005,452.964355 569.447266,440.875549 
	C567.846436,432.920746 568.301636,424.810303 574.081787,418.786682 
	C578.171082,414.525085 583.947144,411.918610 590.932251,413.000000 
z"/>
<path fill="#7D5CD1" opacity="1.000000" stroke="none" 
	d="
M436.042480,452.114410 
	C424.212799,461.152283 412.977570,457.495514 402.842133,448.329010 
	C401.611908,447.216370 400.416870,446.049957 399.319733,444.807617 
	C395.345581,440.307373 394.862183,436.155151 397.555023,430.912292 
	C398.505493,429.061798 399.344299,427.153961 400.955444,425.117249 
	C406.243011,424.455078 409.402863,422.346832 410.164154,417.507690 
	C410.164154,417.507690 410.244904,417.250610 410.757233,417.338440 
	C414.124573,418.194611 415.689087,417.089874 416.000732,414.166626 
	C419.364777,414.120361 422.728790,414.074066 426.685303,414.410736 
	C428.419098,420.151703 433.276184,421.263367 437.164856,423.074890 
	C436.951599,424.674377 436.788605,425.896790 436.564240,427.579681 
	C438.632721,427.352234 440.233032,427.176300 441.833344,427.000336 
	C441.833344,427.000336 441.980865,427.438293 441.848114,427.873047 
	C441.526276,428.860992 441.337219,429.414246 441.148163,429.967468 
	C441.986420,429.743774 442.824677,429.520142 443.662964,429.296509 
	C443.711456,433.049927 443.759949,436.803375 443.125702,440.890015 
	C440.309479,444.853607 438.175995,448.484009 436.042480,452.114410 
z"/>
<path fill="#7D5CD1" opacity="1.000000" stroke="none" 
	d="
M627.877380,355.310822 
	C621.232483,358.204163 619.390869,351.351807 615.230591,349.109680 
	C611.348755,347.017670 608.031189,343.880676 604.451904,341.221649 
	C604.200378,341.034790 603.757263,340.816620 603.539978,340.914978 
	C598.128113,343.365204 596.801880,338.469910 594.015442,335.474152 
	C603.716370,339.808350 613.737976,344.285828 623.522827,349.231598 
	C625.456177,350.208771 626.478882,352.987549 627.877380,355.310822 
z"/>
<path fill="#7D5CD1" opacity="1.000000" stroke="none" 
	d="
M441.894867,426.640930 
	C440.233032,427.176300 438.632721,427.352234 436.564240,427.579681 
	C436.788605,425.896790 436.951599,424.674377 437.164856,423.074890 
	C433.276184,421.263367 428.419098,420.151703 427.138977,414.480164 
	C434.244080,415.416779 438.882629,419.883240 441.894867,426.640930 
z"/>
<path fill="#7D5CD1" opacity="1.000000" stroke="none" 
	d="
M572.635437,330.222290 
	C572.187378,331.483795 571.665649,333.201447 570.507324,334.044556 
	C566.728088,336.795288 562.716492,339.226929 558.480469,341.890717 
	C559.099792,336.762512 563.164062,334.337921 567.282654,332.064423 
	C568.808899,331.221954 570.599976,330.859375 572.635437,330.222290 
z"/>
<path fill="#7D5CD1" opacity="1.000000" stroke="none" 
	d="
M592.481689,334.957214 
	C590.652283,336.828430 588.759216,338.913666 586.641113,334.884338 
	C585.756409,333.201263 583.613892,332.179352 582.021484,330.511749 
	C585.403259,331.693665 588.806885,333.220673 592.481689,334.957214 
z"/>
<path fill="#7D5CD1" opacity="1.000000" stroke="none" 
	d="
M409.874268,417.693481 
	C409.402863,422.346832 406.243011,424.455078 401.281128,424.959900 
	C403.785065,422.598175 406.684723,420.238739 409.874268,417.693481 
z"/>
<path fill="#7D5CD1" opacity="1.000000" stroke="none" 
	d="
M436.354248,451.969604 
	C438.175995,448.484009 440.309479,444.853607 442.779022,441.132599 
	C440.965393,444.636230 438.815704,448.230499 436.354248,451.969604 
z"/>
<path fill="#7D5CD1" opacity="1.000000" stroke="none" 
	d="
M415.663269,414.198395 
	C415.689087,417.089874 414.124573,418.194611 410.885223,417.296387 
	C412.109192,416.187683 413.717499,415.208923 415.663269,414.198395 
z"/>
<path fill="#7D5CD1" opacity="1.000000" stroke="none" 
	d="
M443.486267,429.088409 
	C442.824677,429.520142 441.986420,429.743774 441.148163,429.967468 
	C441.337219,429.414246 441.526276,428.860992 441.883179,428.101440 
	C442.470520,428.223511 442.890045,428.551941 443.486267,429.088409 
z"/>
</svg>